<mxfile host="Electron" modified="2023-11-13T02:41:00.837Z" agent="Mozilla/5.0 (Windows NT 10.0; Win64; x64) AppleWebKit/537.36 (KHTML, like Gecko) draw.io/21.1.2 Chrome/106.0.5249.199 Electron/21.4.3 Safari/537.36" etag="8knOBFkM3YTLRRStCgRb" version="21.1.2" type="device">
  <diagram name="Page-1" id="azv6kvF3WjiCesJI9mhJ">
    <mxGraphModel dx="2353" dy="1609" grid="1" gridSize="10" guides="1" tooltips="1" connect="1" arrows="1" fold="1" page="0" pageScale="1" pageWidth="850" pageHeight="1100" math="0" shadow="0">
      <root>
        <mxCell id="0" />
        <mxCell id="1" parent="0" />
        <mxCell id="tZ3TACghrAFyS69lkd0g-2" value="" style="rounded=0;whiteSpace=wrap;html=1;fontSize=16;fillColor=none;strokeWidth=2;movable=1;resizable=1;rotatable=1;deletable=1;editable=1;locked=0;connectable=1;" vertex="1" parent="1">
          <mxGeometry width="1000" height="740" as="geometry" />
        </mxCell>
        <mxCell id="tZ3TACghrAFyS69lkd0g-17" style="edgeStyle=none;shape=connector;rounded=1;orthogonalLoop=1;jettySize=auto;html=1;exitX=0;exitY=0.5;exitDx=0;exitDy=0;entryX=0.5;entryY=0;entryDx=0;entryDy=0;labelBackgroundColor=default;strokeColor=default;fontFamily=Helvetica;fontSize=12;fontColor=default;endArrow=classic;startSize=8;endSize=8;" edge="1" parent="1" source="tZ3TACghrAFyS69lkd0g-6" target="tZ3TACghrAFyS69lkd0g-8">
          <mxGeometry relative="1" as="geometry">
            <Array as="points">
              <mxPoint x="410" y="80" />
            </Array>
          </mxGeometry>
        </mxCell>
        <mxCell id="tZ3TACghrAFyS69lkd0g-6" value="RealSense &lt;br&gt;LIDAR" style="ellipse;whiteSpace=wrap;html=1;fontSize=16;" vertex="1" parent="1">
          <mxGeometry x="430" y="40" width="140" height="80" as="geometry" />
        </mxCell>
        <mxCell id="tZ3TACghrAFyS69lkd0g-8" value="LIDAR Data" style="rounded=1;whiteSpace=wrap;html=1;fontSize=16;" vertex="1" parent="1">
          <mxGeometry x="360" y="150" width="100" height="60" as="geometry" />
        </mxCell>
        <mxCell id="tZ3TACghrAFyS69lkd0g-18" style="edgeStyle=none;shape=connector;rounded=1;orthogonalLoop=1;jettySize=auto;html=1;exitX=0.5;exitY=0;exitDx=0;exitDy=0;entryX=1;entryY=0.5;entryDx=0;entryDy=0;labelBackgroundColor=default;strokeColor=default;fontFamily=Helvetica;fontSize=12;fontColor=default;endArrow=classic;startSize=8;endSize=8;" edge="1" parent="1" source="tZ3TACghrAFyS69lkd0g-9" target="tZ3TACghrAFyS69lkd0g-6">
          <mxGeometry relative="1" as="geometry">
            <Array as="points">
              <mxPoint x="590" y="80" />
            </Array>
          </mxGeometry>
        </mxCell>
        <mxCell id="tZ3TACghrAFyS69lkd0g-9" value="Data Detail" style="rounded=1;whiteSpace=wrap;html=1;fontSize=16;" vertex="1" parent="1">
          <mxGeometry x="540" y="150" width="100" height="60" as="geometry" />
        </mxCell>
        <mxCell id="tZ3TACghrAFyS69lkd0g-10" value="Rover Control System" style="text;html=1;strokeColor=none;fillColor=none;align=center;verticalAlign=middle;whiteSpace=wrap;rounded=0;fontSize=30;movable=0;resizable=0;rotatable=0;deletable=0;editable=0;locked=1;connectable=0;" vertex="1" parent="1">
          <mxGeometry x="350" y="-50" width="300" height="50" as="geometry" />
        </mxCell>
        <mxCell id="tZ3TACghrAFyS69lkd0g-22" style="edgeStyle=none;shape=connector;rounded=1;orthogonalLoop=1;jettySize=auto;html=1;exitX=1;exitY=0.5;exitDx=0;exitDy=0;entryX=0.5;entryY=1;entryDx=0;entryDy=0;labelBackgroundColor=default;strokeColor=default;fontFamily=Helvetica;fontSize=12;fontColor=default;endArrow=classic;startSize=8;endSize=8;" edge="1" parent="1" source="tZ3TACghrAFyS69lkd0g-19" target="tZ3TACghrAFyS69lkd0g-9">
          <mxGeometry relative="1" as="geometry">
            <Array as="points">
              <mxPoint x="400" y="360" />
              <mxPoint x="590" y="280" />
            </Array>
          </mxGeometry>
        </mxCell>
        <mxCell id="tZ3TACghrAFyS69lkd0g-19" value="RCS Core" style="ellipse;whiteSpace=wrap;html=1;fontFamily=Helvetica;fontSize=22;fontColor=default;" vertex="1" parent="1">
          <mxGeometry x="160" y="300" width="200" height="120" as="geometry" />
        </mxCell>
        <mxCell id="tZ3TACghrAFyS69lkd0g-26" style="edgeStyle=none;shape=connector;rounded=1;jumpStyle=arc;jumpSize=10;orthogonalLoop=1;jettySize=auto;html=1;exitX=0;exitY=1;exitDx=0;exitDy=0;entryX=1;entryY=1;entryDx=0;entryDy=0;labelBackgroundColor=default;strokeColor=default;fontFamily=Helvetica;fontSize=12;fontColor=default;endArrow=classic;startSize=8;endSize=8;startArrow=classic;startFill=1;" edge="1" parent="1" source="tZ3TACghrAFyS69lkd0g-20" target="tZ3TACghrAFyS69lkd0g-19">
          <mxGeometry relative="1" as="geometry">
            <Array as="points">
              <mxPoint x="640" y="440" />
              <mxPoint x="360" y="440" />
            </Array>
          </mxGeometry>
        </mxCell>
        <mxCell id="tZ3TACghrAFyS69lkd0g-29" style="edgeStyle=none;shape=connector;rounded=1;jumpStyle=arc;jumpSize=10;orthogonalLoop=1;jettySize=auto;html=1;exitX=1;exitY=0.5;exitDx=0;exitDy=0;entryX=0;entryY=0.5;entryDx=0;entryDy=0;labelBackgroundColor=default;strokeColor=default;fontFamily=Helvetica;fontSize=12;fontColor=default;endArrow=classic;startSize=8;endSize=8;startArrow=classic;startFill=1;" edge="1" parent="1" source="tZ3TACghrAFyS69lkd0g-20" target="tZ3TACghrAFyS69lkd0g-28">
          <mxGeometry relative="1" as="geometry" />
        </mxCell>
        <mxCell id="tZ3TACghrAFyS69lkd0g-20" value="Rosbridge" style="ellipse;whiteSpace=wrap;html=1;fontFamily=Helvetica;fontSize=22;fontColor=default;" vertex="1" parent="1">
          <mxGeometry x="640" y="300" width="200" height="120" as="geometry" />
        </mxCell>
        <mxCell id="tZ3TACghrAFyS69lkd0g-25" style="edgeStyle=none;shape=connector;rounded=1;orthogonalLoop=1;jettySize=auto;html=1;exitX=0.5;exitY=1;exitDx=0;exitDy=0;entryX=0;entryY=0.5;entryDx=0;entryDy=0;labelBackgroundColor=default;strokeColor=default;fontFamily=Helvetica;fontSize=12;fontColor=default;endArrow=classic;startSize=8;endSize=8;jumpStyle=arc;jumpSize=10;" edge="1" parent="1" source="tZ3TACghrAFyS69lkd0g-8" target="tZ3TACghrAFyS69lkd0g-20">
          <mxGeometry relative="1" as="geometry">
            <Array as="points">
              <mxPoint x="410" y="280" />
              <mxPoint x="600" y="360" />
            </Array>
          </mxGeometry>
        </mxCell>
        <mxCell id="tZ3TACghrAFyS69lkd0g-28" value="Rover GUI" style="text;html=1;strokeColor=none;fillColor=none;align=center;verticalAlign=middle;whiteSpace=wrap;rounded=0;fontSize=30;movable=1;resizable=1;rotatable=1;deletable=1;editable=1;locked=0;connectable=1;" vertex="1" parent="1">
          <mxGeometry x="1080" y="335" width="160" height="50" as="geometry" />
        </mxCell>
        <mxCell id="tZ3TACghrAFyS69lkd0g-35" style="edgeStyle=none;shape=connector;rounded=1;jumpStyle=arc;jumpSize=10;orthogonalLoop=1;jettySize=auto;html=1;exitX=0.5;exitY=1;exitDx=0;exitDy=0;labelBackgroundColor=default;strokeColor=default;fontFamily=Helvetica;fontSize=12;fontColor=default;endArrow=classic;startSize=8;endSize=8;entryX=0.5;entryY=0;entryDx=0;entryDy=0;" edge="1" parent="1" source="tZ3TACghrAFyS69lkd0g-32" target="tZ3TACghrAFyS69lkd0g-36">
          <mxGeometry relative="1" as="geometry">
            <mxPoint x="500" y="880" as="targetPoint" />
          </mxGeometry>
        </mxCell>
        <mxCell id="tZ3TACghrAFyS69lkd0g-32" value="Obstacle&lt;br&gt;Detection" style="ellipse;whiteSpace=wrap;html=1;fontFamily=Helvetica;fontSize=22;fontColor=default;" vertex="1" parent="1">
          <mxGeometry x="400" y="525" width="200" height="120" as="geometry" />
        </mxCell>
        <mxCell id="tZ3TACghrAFyS69lkd0g-33" value="" style="endArrow=classic;html=1;rounded=1;labelBackgroundColor=default;strokeColor=default;fontFamily=Helvetica;fontSize=12;fontColor=default;startSize=8;endSize=8;shape=connector;jumpStyle=arc;jumpSize=10;exitX=0;exitY=0.5;exitDx=0;exitDy=0;entryX=0;entryY=0.5;entryDx=0;entryDy=0;" edge="1" parent="1" source="tZ3TACghrAFyS69lkd0g-8" target="tZ3TACghrAFyS69lkd0g-32">
          <mxGeometry width="50" height="50" relative="1" as="geometry">
            <mxPoint x="270" y="360" as="sourcePoint" />
            <mxPoint x="320" y="310" as="targetPoint" />
            <Array as="points">
              <mxPoint x="80" y="180" />
              <mxPoint x="80" y="585" />
            </Array>
          </mxGeometry>
        </mxCell>
        <mxCell id="tZ3TACghrAFyS69lkd0g-36" value="Other System" style="text;html=1;strokeColor=none;fillColor=none;align=center;verticalAlign=middle;whiteSpace=wrap;rounded=0;fontSize=16;fontFamily=Helvetica;fontColor=default;" vertex="1" parent="1">
          <mxGeometry x="450" y="680" width="100" height="30" as="geometry" />
        </mxCell>
        <mxCell id="tZ3TACghrAFyS69lkd0g-37" value="" style="endArrow=classic;html=1;rounded=1;labelBackgroundColor=default;strokeColor=default;fontFamily=Helvetica;fontSize=12;fontColor=default;startSize=8;endSize=8;shape=connector;jumpStyle=arc;jumpSize=10;exitX=1;exitY=0.5;exitDx=0;exitDy=0;entryX=0.5;entryY=1;entryDx=0;entryDy=0;" edge="1" parent="1" source="tZ3TACghrAFyS69lkd0g-32" target="tZ3TACghrAFyS69lkd0g-20">
          <mxGeometry width="50" height="50" relative="1" as="geometry">
            <mxPoint x="670" y="790" as="sourcePoint" />
            <mxPoint x="700" y="690" as="targetPoint" />
            <Array as="points">
              <mxPoint x="740" y="585" />
            </Array>
          </mxGeometry>
        </mxCell>
      </root>
    </mxGraphModel>
  </diagram>
</mxfile>
